<svg xmlns="http://www.w3.org/2000/svg" viewBox="0 0 24 24"><defs><style>.a{fill:none;stroke:#000;stroke-linecap:round;stroke-miterlimit:10;}</style></defs><title>analytics-graph-bar</title><line class="a" x1="0.5" y1="23.5" x2="23.5" y2="23.5" id="id_101" style="stroke: rgb(31, 93, 105);"></line><path class="a" d="M4.5,19a.5.5,0,0,0-.5-.5H2a.5.5,0,0,0-.5.5v4.5h3Z" id="id_102" style="stroke: rgb(38, 104, 117);"></path><path class="a" d="M10.5,14a.5.5,0,0,0-.5-.5H8a.5.5,0,0,0-.5.5v9.5h3Z" id="id_103" style="stroke: rgb(35, 99, 112);"></path><path class="a" d="M16.5,16a.5.5,0,0,0-.5-.5H14a.5.5,0,0,0-.5.5v7.5h3Z" id="id_104" style="stroke: rgb(34, 102, 115);"></path><path class="a" d="M22.5,9a.5.5,0,0,0-.5-.5H20a.5.5,0,0,0-.5.5V23.5h3Z" id="id_105" style="stroke: rgb(35, 99, 112);"></path><circle class="a" cx="3" cy="11.5" r="1.5" id="id_106" style="stroke: rgb(33, 97, 110);"></circle><circle class="a" cx="9" cy="6.5" r="1.5" id="id_107" style="stroke: rgb(32, 94, 107);"></circle><circle class="a" cx="15" cy="8.5" r="1.5" id="id_108" style="stroke: rgb(33, 95, 107);"></circle><circle class="a" cx="21" cy="2" r="1.5" id="id_109" style="stroke: rgb(32, 94, 107);"></circle><line class="a" x1="4.261" y1="10.45" x2="7.848" y2="7.46" id="id_110" style="stroke: rgb(30, 90, 102);"></line><line class="a" x1="10.424" y1="6.974" x2="13.577" y2="8.025" id="id_111" style="stroke: rgb(40, 104, 117);"></line><line class="a" x1="19.8" y1="2.9" x2="16.041" y2="7.285" id="id_112" style="stroke: rgb(39, 104, 117);"></line></svg>