<svg xmlns="http://www.w3.org/2000/svg" xml:space="preserve" width="1.70666in" height="1.70666in" version="1.1" style="shape-rendering:geometricPrecision; text-rendering:geometricPrecision; image-rendering:optimizeQuality; fill-rule:evenodd; clip-rule:evenodd" viewBox="0 0 1707 1707" xmlns:xlink="http://www.w3.org/1999/xlink">
 <defs>
  <style type="text/css">
   
    .fil0 {fill:black}
   
  </style>
 </defs>
 <g id="Layer_x0020_1">
  <metadata id="CorelCorpID_0Corel-Layer"></metadata>
  <g id="_391369152">
   <g>
    <g>
     <path class="fil0" d="M677 1122l-498 0c-62,0 -112,-50 -112,-112l0 -897c0,-63 50,-112 112,-112l498 0c63,0 113,49 113,112l0 897c0,62 -50,112 -113,112zm-498 -1073c-34,0 -63,29 -63,64l0 897c0,35 29,64 63,64l498 0c35,0 64,-29 64,-64l0 -897c0,-35 -29,-64 -64,-64l-498 0z" id="id_101" style="fill: rgb(35, 87, 97);"></path>
    </g>
    <g>
     <path class="fil0" d="M766 963l-674 0c-14,0 -25,-11 -25,-25 0,-14 11,-25 25,-25l674 0c14,0 25,11 25,25 0,14 -13,25 -25,25z" id="id_102" style="fill: rgb(33, 84, 94);"></path>
    </g>
    <g>
     <path class="fil0" d="M496 136l-135 0c-14,0 -25,-11 -25,-25 0,-13 11,-24 25,-24l135 0c13,0 25,11 25,24 0,14 -12,25 -25,25z" id="id_103" style="fill: rgb(34, 84, 94);"></path>
    </g>
    <g>
     <path class="fil0" d="M1529 1706l-500 0c-62,0 -112,-50 -112,-111l0 -897c0,-62 50,-112 112,-112l498 0c61,0 111,50 111,112l0 897c2,61 -48,111 -109,111zm-500 -1072c-34,0 -63,29 -63,64l0 897c0,35 29,63 63,63l498 0c35,0 63,-28 63,-63l0 -897c0,-35 -28,-64 -63,-64l-498 0z" id="id_104" style="fill: rgb(31, 82, 92);"></path>
    </g>
    <g>
     <path class="fil0" d="M1615 1548l-673 0c-14,0 -25,-11 -25,-25 0,-14 11,-25 25,-25l673 0c13,0 25,11 25,25 0,14 -12,25 -25,25z" id="id_105" style="fill: rgb(30, 78, 87);"></path>
    </g>
    <g>
     <path class="fil0" d="M1346 722l-134 0c-13,0 -24,-11 -24,-25 0,-14 11,-25 24,-25l134 0c13,0 25,11 25,25 0,14 -12,25 -25,25z" id="id_106" style="fill: rgb(33, 78, 87);"></path>
    </g>
    <g>
     <path class="fil0" d="M942 1376l-392 0c-72,0 -132,-58 -132,-132l0 -147c0,-13 11,-25 25,-25 14,0 25,12 25,25l0 149c0,46 37,83 83,83l392 0c14,0 25,11 25,25 0,14 -12,22 -26,22zm323 -742c-14,0 -25,-11 -25,-25l0 -147c0,-45 -37,-83 -83,-83l-391 0c-14,0 -25,-11 -25,-25 0,-14 11,-25 25,-25l391 0c73,0 132,60 132,132l0 148c0,14 -11,25 -24,25z" id="id_107" style="fill: rgb(32, 75, 84);"></path>
    </g>
    <g>
     <path class="fil0" d="M1319 1627l-82 0c-13,0 -25,-11 -25,-25 0,-14 12,-25 25,-25l82 0c14,0 25,11 25,25 0,14 -11,25 -25,25z" id="id_108" style="fill: rgb(30, 73, 82);"></path>
    </g>
    <g>
     <path class="fil0" d="M469 1042l-80 0c-14,0 -25,-11 -25,-25 0,-14 11,-25 25,-25l80 0c14,0 25,11 25,25 0,14 -11,25 -25,25z" id="id_109" style="fill: rgb(31, 74, 82);"></path>
    </g>
    <g>
     <path class="fil0" d="M625 760l-393 0c-14,0 -25,-11 -25,-25l0 -231c0,-1 0,-3 0,-4 0,-2 0,-3 2,-4 1,-6 5,-10 9,-13 0,0 0,0 0,0l196 -123c8,-6 18,-6 26,0l197 123c0,0 0,0 1,0 0,0 0,0 0,0l0 0c5,3 9,8 10,13 0,1 1,2 1,4 0,1 0,3 0,4l0 231c0,14 -11,25 -24,25zm-368 -48l344 0 0 -167 -160 96c-8,4 -16,4 -24,0l-160 -96 0 167zm22 -209l150 90 150 -90 -150 -95 -150 95z" id="id_110" style="fill: rgb(30, 71, 79);"></path>
    </g>
    <g>
     <path class="fil0" d="M1201 1373c-2,0 -5,0 -9,-1 -10,-4 -16,-13 -16,-22l0 -90c-37,0 -66,-31 -66,-68l0 -206c0,-37 30,-66 66,-66l204 0c38,0 68,30 68,66l0 204c0,38 -30,68 -68,68l-58 0 -104 107c-4,6 -11,8 -17,8zm-25 -406c-11,0 -18,8 -18,18l0 204c0,11 9,19 18,19l24 0c14,0 25,11 25,25l0 56 71 -72c4,-5 11,-7 18,-7l68 0c11,0 19,-10 19,-20l0 -204c0,-9 -8,-18 -19,-18l-206 0 0 -1z" id="id_111" style="fill: rgb(29, 69, 77);"></path>
    </g>
   </g>
  </g>
 </g>
</svg>