<svg version="1.1" xmlns="http://www.w3.org/2000/svg" xmlns:xlink="http://www.w3.org/1999/xlink" x="0px" y="0px" viewBox="0 0 32 32" enable-background="new 0 0 32 32" xml:space="preserve">
<g id="Guides">
</g>
<g id="_x32_0">
</g>
<g id="_x31_9">
</g>
<g id="_x31_8">
</g>
<g id="_x31_7">
</g>
<g id="_x31_6">
</g>
<g id="_x31_5">
</g>
<g id="_x31_4">
</g>
<g id="_x31_3">
</g>
<g id="_x31_2">
</g>
<g id="_x31_1">
</g>
<g id="_x31_0">
</g>
<g id="_x30_9">
</g>
<g id="_x30_8">
</g>
<g id="_x30_7">
</g>
<g id="_x30_6">
</g>
<g id="_x30_5">
</g>
<g id="_x30_4">
</g>
<g id="_x30_3">
</g>
<g id="_x30_2">
	<path d="M22.863,12.495C22.684,12.188,22.355,12,22,12h-4.656l2.614-8.713c0.141-0.471-0.081-0.975-0.524-1.188
		c-0.445-0.216-0.976-0.073-1.256,0.332l-9,13c-0.211,0.306-0.236,0.704-0.063,1.033C9.287,16.793,9.628,17,10,17h4.743
		l-2.718,11.775c-0.112,0.485,0.149,0.978,0.613,1.158C12.757,29.978,12.879,30,13,30c0.353,0,0.69-0.187,0.872-0.51l9-16
		C23.046,13.181,23.042,12.802,22.863,12.495z M15.539,22.448l1.436-6.223c0.068-0.297-0.002-0.609-0.192-0.848
		C16.593,15.139,16.305,15,16,15h-4.091l4.319-6.238l-1.186,3.951c-0.091,0.303-0.033,0.63,0.156,0.884
		C15.386,13.851,15.684,14,16,14h4.29L15.539,22.448z" id="id_101" style="fill: rgb(33, 80, 89);"></path>
	<path d="M27.488,8H28c0.552,0,1-0.448,1-1s-0.448-1-1-1h-3c-0.552,0-1,0.448-1,1v3c0,0.552,0.448,1,1,1s1-0.448,1-1V9.381
		c1.292,1.954,2,4.258,2,6.619c0,6.617-5.383,12-12,12c-0.552,0-1,0.448-1,1s0.448,1,1,1c7.72,0,14-6.28,14-14
		C30,13.134,29.114,10.336,27.488,8z" id="id_102" style="fill: rgb(34, 80, 89);"></path>
	<path d="M7,21c-0.552,0-1,0.448-1,1v0.631C4.69,20.667,4,18.393,4,16C4,9.383,9.383,4,16,4c0.552,0,1-0.448,1-1s-0.448-1-1-1
		C8.28,2,2,8.28,2,16c0,2.901,0.876,5.647,2.522,8H4c-0.552,0-1,0.448-1,1s0.448,1,1,1h3c0.552,0,1-0.448,1-1v-3
		C8,21.448,7.552,21,7,21z" id="id_103" style="fill: rgb(35, 82, 92);"></path>
</g>
<g id="_x30_1">
</g>
</svg>