<svg id="Layer_1" data-name="Layer 1" xmlns="http://www.w3.org/2000/svg" viewBox="0 0 64 64"><path d="M5,62H59a3,3,0,0,0,3-3V5a3,3,0,0,0-3-3H5A3,3,0,0,0,2,5V59A3,3,0,0,0,5,62Zm54-2H5a1,1,0,0,1-1-1V10H60V59A1,1,0,0,1,59,60ZM5,4H59a1,1,0,0,1,1,1V8H4V5A1,1,0,0,1,5,4Z" id="id_177" style="fill: rgb(28, 90, 108);"></path><rect x="8" y="13" width="4" height="2" id="id_178"></rect><rect x="14" y="13" width="10" height="2" id="id_179"></rect><rect x="24" y="17" width="4" height="2" id="id_180"></rect><rect x="12" y="17" width="10" height="2" id="id_181"></rect><rect x="24" y="29" width="4" height="2" id="id_182"></rect><rect x="14" y="29" width="8" height="2" id="id_183"></rect><rect x="26" y="13" width="2" height="2" id="id_184"></rect><rect x="25" y="37" width="3" height="2" id="id_185"></rect><rect x="14" y="37" width="8" height="2" id="id_186"></rect><rect x="24" y="33" width="4" height="2" id="id_187"></rect><rect x="12" y="33" width="10" height="2" id="id_188"></rect><rect x="52" y="45" width="4" height="2" id="id_189"></rect><rect x="40" y="45" width="10" height="2" id="id_190"></rect><rect x="36" y="41" width="4" height="2" id="id_191"></rect><rect x="42" y="41" width="10" height="2" id="id_192"></rect><rect x="36" y="37" width="4" height="2" id="id_193"></rect><rect x="42" y="37" width="10" height="2" id="id_194"></rect><rect x="36" y="33" width="4" height="2" id="id_195"></rect><rect x="42" y="33" width="10" height="2" id="id_196"></rect><rect x="40" y="29" width="4" height="2" id="id_197"></rect><rect x="46" y="29" width="10" height="2" id="id_198"></rect><rect x="36" y="45" width="2" height="2" id="id_199"></rect><rect x="36" y="29" width="2" height="2" id="id_200"></rect><rect x="36" y="21" width="4" height="2" id="id_201"></rect><rect x="42" y="21" width="10" height="2" id="id_202"></rect><rect x="36" y="17" width="4" height="2" id="id_203"></rect><rect x="42" y="17" width="10" height="2" id="id_204"></rect><rect x="36" y="13" width="4" height="2" id="id_205"></rect><rect x="42" y="13" width="10" height="2" id="id_206"></rect><rect x="40" y="25" width="4" height="2" id="id_207"></rect><rect x="46" y="25" width="10" height="2" id="id_208"></rect><rect x="36" y="25" width="2" height="2" id="id_209"></rect><rect x="31" y="21" width="2" height="2" id="id_210"></rect><rect x="6" y="5" width="2" height="2" id="id_211"></rect><rect x="10" y="5" width="2" height="2" id="id_212"></rect><rect x="14" y="5" width="2" height="2" id="id_213"></rect><path d="M20,21a13,13,0,0,0-3,25.64v8.78A2.82,2.82,0,0,0,20,58a2.82,2.82,0,0,0,3-2.58V46.64A13,13,0,0,0,20,21Zm0,35c-.61,0-1-.34-1-.58V51h2v4.42C21,55.66,20.61,56,20,56Zm1-7H19V47c.33,0,.66,0,1,0s.67,0,1,0Zm-1-4A11,11,0,1,1,31,34,11,11,0,0,1,20,45Z" id="id_214" style="fill: rgb(28, 90, 108);"></path></svg>