<svg xmlns="http://www.w3.org/2000/svg" xml:space="preserve" width="1.99999in" height="1.99999in" version="1.1" style="shape-rendering:geometricPrecision; text-rendering:geometricPrecision; image-rendering:optimizeQuality; fill-rule:evenodd; clip-rule:evenodd" viewBox="0 0 2000 2000" xmlns:xlink="http://www.w3.org/1999/xlink">
 <defs>
  <style type="text/css">
   
    .fil0 {fill:#000002}
   
  </style>
 </defs>
 <g id="Layer_x0020_1">
  <metadata id="CorelCorpID_0Corel-Layer"></metadata>
  <path class="fil0" d="M1000 694c-51,0 -93,-42 -93,-93 0,-52 42,-94 93,-94 51,0 93,42 93,94 0,51 -42,93 -93,93zm36 170l-13 0 0 177 203 0c13,0 23,10 23,23l0 575c0,13 -10,23 -23,23l-452 0c-13,0 -23,-10 -23,-23l0 -575c0,-13 10,-23 23,-23l203 0 0 -177c-43,0 -35,-10 -48,-94 -14,-6 -28,-13 -40,-23 -103,39 -81,48 -135,-46 -6,-10 -3,-22 5,-30l58 -47 0 0 -399 0 0 275 203 0c13,0 23,11 23,23l0 576c0,13 -10,23 -23,23l-451 0c-13,0 -23,-10 -23,-23l0 -576c0,-12 10,-23 23,-23l203 0 0 -298c0,-13 10,-23 22,-23l422 0 0 -1c-84,-69 -81,-45 -27,-139 6,-10 18,-14 28,-10l71 26c12,-9 26,-17 40,-23 17,-108 -1,-93 107,-93 12,0 21,8 23,19l12 74c14,6 28,14 40,23 103,-38 81,-47 135,47 6,10 3,22 -5,29l-58 47 0 1 422 0c12,0 22,10 22,23l0 298 203 0c13,0 23,11 23,23l0 576c0,13 -10,23 -23,23l-451 0c-13,0 -23,-10 -23,-23l0 -576c0,-12 10,-23 23,-23l203 0 0 -275 -399 0 0 0c84,69 81,46 27,140 -6,10 -18,14 -28,10l-71 -27c-12,10 -26,18 -40,24l-12 74c-2,11 -11,19 -23,19zm-53 -46l34 0 11 -68c4,-22 33,-19 64,-46 6,-6 15,-7 23,-4l65 24 17 -29c-80,-65 -59,-38 -59,-95 0,-55 -22,-27 59,-93l-17 -30 -65 25c-21,8 -33,-20 -72,-33 -8,-2 -14,-9 -15,-18l-11 -68 -34 0 -11 68c-4,22 -33,19 -64,47 -6,5 -15,7 -23,4l-65 -25 -17 30c80,64 59,37 59,94 0,55 22,28 -59,94l17 29 65 -24c21,-8 33,19 72,32 8,3 14,10 15,18l11 68zm-467 581l-241 0c-30,0 -30,-46 0,-46l241 0c29,0 29,46 0,46zm0 -111l-241 0c-30,0 -30,-46 0,-46l241 0c29,0 29,46 0,46zm0 -110l-241 0c-30,0 -29,-46 0,-46l241 0c29,0 29,46 0,46zm0 -111l-241 0c-30,0 -29,-45 0,-45l241 0c29,0 29,45 0,45zm604 473l-240 0c-30,0 -30,-46 0,-46l240 0c30,0 30,46 0,46zm0 -110l-240 0c-30,0 -30,-46 0,-46l240 0c30,0 30,46 0,46zm0 -111l-240 0c-30,0 -30,-46 0,-46l240 0c30,0 30,46 0,46zm0 -110l-240 0c-30,0 -30,-46 0,-46l240 0c30,0 30,46 0,46zm605 190l-241 0c-29,0 -29,-46 0,-46l241 0c30,0 30,46 0,46zm0 -111l-241 0c-29,0 -29,-46 0,-46l241 0c30,0 30,46 0,46zm0 -110l-241 0c-29,0 -29,-46 0,-46l241 0c30,0 30,46 0,46zm0 -111l-241 0c-29,0 -29,-45 0,-45l241 0c30,0 30,45 0,45zm-1330 -122l-202 0 0 530 405 0 0 -530 -203 0zm1210 0l-203 0 0 530 406 0 0 -530 -203 0zm-808 671l406 0 0 -529 -406 0 0 529zm203 -1063c-26,0 -47,22 -47,48 0,26 21,47 47,47 26,0 47,-21 47,-47 0,-26 -21,-48 -47,-48z" id="id_101" style="fill: rgb(89, 74, 40);"></path>
 </g>
</svg>