<svg xmlns="http://www.w3.org/2000/svg" xml:space="preserve" width="1.70666in" height="1.70666in" version="1.1" style="shape-rendering:geometricPrecision; text-rendering:geometricPrecision; image-rendering:optimizeQuality; fill-rule:evenodd; clip-rule:evenodd" viewBox="0 0 1707 1707" xmlns:xlink="http://www.w3.org/1999/xlink">
 <defs>
  <style type="text/css">
   
    .fil0 {fill:#1c5a6c}
   
  </style>
 </defs>
 <g id="Layer_x0020_1">
  <metadata id="CorelCorpID_0Corel-Layer"></metadata>
  <path class="fil0" d="M1291 1118c-47,0 -86,-38 -86,-85 0,-47 39,-85 86,-85 47,0 85,38 85,85 0,47 -39,85 -85,85zm138 442l-6 0c0,54 8,71 -35,71 -35,100 -160,100 -195,0 -30,0 -35,-7 -35,-36l-1043 0c-12,0 -22,-11 -22,-23l0 -1549c0,-13 10,-23 22,-23l1175 0c13,0 23,10 23,23l0 686c168,11 301,152 301,323 0,201 -126,154 -126,439 0,22 -20,22 -36,22 0,24 8,67 -23,67zm-51 0l-175 0 0 26 175 0 0 -26zm-246 -11c-6,-10 -3,-43 -3,-56 -16,0 -36,0 -36,-22 0,-285 -126,-238 -126,-439 0,-171 133,-311 301,-323l0 -663 -1130 0 0 1503 994 0zm19 -101l292 0c6,-271 126,-242 126,-417 0,-153 -125,-278 -279,-278 -153,0 -278,125 -278,279 0,174 120,145 126,416l13 0zm23 67l233 0 0 -22 -233 0 0 22zm69 116c24,39 72,39 95,0l-95 0zm-300 -1434l-481 0c-29,0 -29,-46 0,-46l481 0c30,0 30,46 0,46zm201 178l-883 0c-29,0 -29,-46 0,-46l883 0c30,0 30,46 0,46zm0 178l-883 0c-29,0 -29,-46 0,-46l883 0c30,0 30,46 0,46zm-100 178l-783 0c-29,0 -29,-45 0,-45l783 0c30,0 30,45 0,45zm-133 178l-650 0c-29,0 -29,-45 0,-45l650 0c29,0 29,45 0,45zm-67 178l-583 0c-29,0 -29,-45 0,-45l583 0c29,0 29,45 0,45zm-67 179l-516 0c-29,0 -29,-46 0,-46l516 0c30,0 30,46 0,46zm-133 178l-383 0c-29,0 -29,-46 0,-46l383 0c29,0 29,46 0,46zm684 -179c-106,0 -93,15 -104,-75 -13,-5 -25,-12 -36,-21 -83,36 -64,40 -117,-52 -6,-10 -3,-23 6,-30l44 -33 0 -42c-72,-54 -66,-36 -13,-127 6,-10 18,-14 29,-10l51 22c11,-8 23,-16 36,-21 11,-90 -2,-75 104,-75 11,0 21,8 22,20l7 55c13,5 25,13 36,21 83,-36 64,-39 117,52 6,10 4,23 -6,30l-44 33 0 42c72,54 66,36 13,128 -6,10 -18,14 -29,9l-51 -22c-11,9 -23,16 -36,21l-7 55c-1,12 -11,20 -22,20zm-55 -45l35 0c3,-30 1,-61 21,-68 36,-12 49,-39 70,-30l45 19 17 -29c-65,-49 -45,-27 -45,-79 0,-51 -20,-30 45,-78l-17 -30c-28,12 -54,30 -70,15 -28,-26 -58,-22 -61,-45l-5 -49 -35 0c-3,30 -1,62 -21,68 -36,12 -48,39 -70,30l-45 -19 -17 30c65,48 45,27 45,78 0,52 20,31 -45,79l17 29c28,-12 54,-29 70,-15 28,26 58,22 61,45l5 49zm18 -227c-53,0 -53,80 0,80 52,0 52,-80 0,-80z" id="id_101" style="fill: rgb(28, 90, 108);"></path>
 </g>
</svg>