<svg version="1.1" xmlns="http://www.w3.org/2000/svg" xmlns:xlink="http://www.w3.org/1999/xlink" x="0px" y="0px" viewBox="0 0 50 50" style="enable-background:new 0 0 50 50;" xml:space="preserve">
<g id="Layer_1">
	<path d="M8,48.618l5-2.5l4,2l4-2l4,2l4-2l4,2l4-2l5,2.5V1H8V48.618z M10,3h30v42.382l-3-1.5l-4,2l-4-2l-4,2l-4-2l-4,2l-4-2l-3,1.5
		V3z" id="id_101" style="fill: rgb(46, 109, 122);"></path>
	<path d="M25,16c2.757,0,5-2.243,5-5s-2.243-5-5-5s-5,2.243-5,5S22.243,16,25,16z M25,8c1.654,0,3,1.346,3,3s-1.346,3-3,3
		s-3-1.346-3-3S23.346,8,25,8z" id="id_102" style="fill: rgb(46, 108, 120);"></path>
	<rect x="14" y="22" width="12" height="2" id="id_103" style="fill: rgb(45, 105, 117);"></rect>
	<rect x="32" y="22" width="4" height="2" id="id_104" style="fill: rgb(41, 103, 115);"></rect>
	<rect x="14" y="27" width="12" height="2" id="id_105" style="fill: rgb(44, 109, 122);"></rect>
	<rect x="32" y="27" width="4" height="2" id="id_106" style="fill: rgb(41, 104, 117);"></rect>
	<rect x="14" y="32" width="12" height="2" id="id_107" style="fill: rgb(39, 102, 115);"></rect>
	<rect x="32" y="32" width="4" height="2" id="id_108" style="fill: rgb(41, 104, 117);"></rect>
	<rect x="14" y="37" width="12" height="2" id="id_109" style="fill: rgb(37, 95, 107);"></rect>
	<rect x="32" y="37" width="4" height="2" id="id_110" style="fill: rgb(40, 100, 112);"></rect>
</g>
<g>
</g>
</svg>