<svg xmlns="http://www.w3.org/2000/svg" xml:space="preserve" width="7.11111in" height="7.11111in" version="1.1" style="shape-rendering:geometricPrecision; text-rendering:geometricPrecision; image-rendering:optimizeQuality; fill-rule:evenodd; clip-rule:evenodd" viewBox="0 0 7111 7111" xmlns:xlink="http://www.w3.org/1999/xlink">
 <defs>
  <style type="text/css">
   
    .fil0 {fill:#1c5a6c}
    .fil1 {fill:#1c5a6c}
   
  </style>
 </defs>
 <g id="Layer_x0020_1">
  <metadata id="CorelCorpID_0Corel-Layer"></metadata>
  <path class="fil0" d="M4086 1864c-104,0 -162,-129 -85,-206l119 -120 -119 -119c-47,-47 -47,-123 0,-170 47,-47 124,-48 171,0l119 119 119 -119c47,-47 123,-47 171,0 47,47 47,123 0,170l-119 119 119 120c77,77 18,206 -86,206 -31,0 -62,-12 -85,-36l-119 -119 -119 119c-24,24 -55,36 -86,36zm1643 4102l-1114 0 553 957c49,81 -1,188 -101,188l-851 0c-43,0 -83,-23 -104,-60l-556 -964 -557 964c-21,37 -61,60 -104,60l-851 0c-92,0 -151,-101 -104,-181l556 -964 -1114 0c-67,0 -121,-54 -121,-120l0 -446 -1094 0c-67,0 -121,-54 -121,-120l0 -4672c0,-66 54,-120 121,-120l803 0 0 -367c0,-67 54,-121 121,-121l4929 0c67,0 121,54 121,121l0 367 803 0c67,0 121,54 121,120l0 4672c0,66 -54,120 -121,120l-1094 0 0 446c0,66 -54,120 -121,120zm-4226 -241l4106 0 0 -325 -4106 0 0 325zm-291 -5237l4687 0 0 -246 -4687 0 0 246zm-924 4671l6535 0 0 -4430 -6535 0 0 4430zm3998 1711l572 0 -522 -904 -571 0 521 904zm-2033 0l572 0 521 -904 -571 0 -522 904zm3535 -3321c-30,0 -61,-12 -85,-35l-119 -119 -119 119c-47,47 -124,47 -171,0 -47,-47 -47,-124 0,-171l119 -119 -119 -119c-47,-47 -47,-124 0,-171 47,-47 124,-47 171,0l119 119 119 -119c47,-47 124,-47 171,0 47,47 47,124 0,171l-119 119 119 119c77,77 19,206 -86,206zm-1547 1306c-31,0 -62,-12 -86,-36l-119 -119 -119 119c-47,48 -123,48 -170,0 -48,-47 -48,-123 0,-170l119 -119 -120 -119c-47,-48 -47,-124 0,-171 48,-47 124,-47 171,0l119 119 119 -119c48,-47 124,-47 171,0 47,47 47,123 0,171l-119 119 119 119c77,77 19,206 -85,206zm-1590 -821l633 -311c-42,-287 232,-517 505,-433l362 -520c-194,-255 -14,-632 314,-632 125,0 236,59 308,150l1010 -379c-10,-224 169,-412 393,-412 218,0 394,176 394,393 0,217 -176,394 -394,394 -124,0 -236,-58 -308,-149l-1010 379c13,274 -252,474 -509,395l-362 519c194,256 14,632 -314,632 -111,0 -211,-46 -283,-120l-632 311c34,236 -150,451 -390,451 -217,0 -394,-177 -394,-394 0,-167 105,-310 251,-367l-62 -1049c-36,-9 -71,-24 -102,-42l-766 679c113,255 -73,552 -360,552 -217,0 -394,-176 -394,-393 0,-310 337,-492 594,-339l766 -680c-113,-255 73,-552 360,-552 217,0 394,177 394,394 0,167 -104,309 -251,367l62 1049c72,18 135,56 185,107zm-382 -1371c80,-6 144,-70 144,-152 0,-84 -68,-152 -152,-152 -84,0 -152,68 -152,152 0,87 73,156 160,152zm92 1493c-81,6 -145,69 -145,152 0,84 68,152 152,152 84,0 152,-68 152,-152 0,-87 -73,-156 -159,-152zm-1426 -621c-84,0 -153,69 -153,153 0,83 69,152 153,152 84,0 152,-69 152,-152 0,-84 -68,-153 -152,-153zm2738 -21c-84,0 -152,68 -152,152 0,84 68,152 152,152 84,0 153,-68 153,-152 0,-84 -69,-152 -153,-152zm792 -1134c-84,0 -152,68 -152,152 0,84 68,152 152,152 84,0 152,-68 152,-152 0,-84 -68,-152 -152,-152zm1711 -642c-84,0 -152,68 -152,152 0,84 68,153 152,153 84,0 153,-69 153,-153 0,-84 -69,-152 -153,-152zm-3078 -463l-2436 0c-67,0 -121,-54 -121,-121 0,-67 54,-121 121,-121l2436 0c67,0 121,54 121,121 0,67 -54,121 -121,121zm-793 434l-1643 0c-67,0 -121,-54 -121,-121 0,-67 54,-121 121,-121l1643 0c67,0 121,54 121,121 0,67 -54,121 -121,121z" id="id_101" style="fill: rgb(28, 90, 108);"></path>
  <path class="fil1" d="M2413 2511c0,-84 -68,-152 -152,-152 -84,0 -152,68 -152,152 0,87 73,156 160,152 80,-6 144,-70 144,-152z" id="id_102" style="fill: rgb(255, 255, 255);"></path>
  <path class="fil1" d="M1087 3688c0,-84 -68,-153 -152,-153 -84,0 -153,69 -153,153 0,83 69,152 153,152 84,0 152,-69 152,-152z" id="id_103" style="fill: rgb(255, 255, 255);"></path>
  <path class="fil1" d="M3521 3666c0,84 68,152 152,152 84,0 153,-68 153,-152 0,-84 -69,-152 -153,-152 -84,0 -152,68 -152,152z" id="id_104" style="fill: rgb(255, 255, 255);"></path>
  <path class="fil1" d="M4313 2532c0,84 68,152 152,152 84,0 152,-68 152,-152 0,-84 -68,-152 -152,-152 -84,0 -152,68 -152,152z" id="id_105" style="fill: rgb(255, 255, 255);"></path>
  <path class="fil1" d="M6024 1890c0,84 68,153 152,153 84,0 153,-69 153,-153 0,-84 -69,-152 -153,-152 -84,0 -152,68 -152,152z" id="id_106" style="fill: rgb(255, 255, 255);"></path>
  <polygon class="fil1" points="1212,488 5899,488 5899,242 1212,242 " id="id_107" style="fill: rgb(255, 255, 255);"></polygon>
  <path class="fil1" d="M2361 4156c-81,6 -145,69 -145,152 0,84 68,152 152,152 84,0 152,-68 152,-152 0,-87 -73,-156 -159,-152z" id="id_108" style="fill: rgb(255, 255, 255);"></path>
  <polygon class="fil1" points="2775,5966 2253,6870 2825,6870 3346,5966 " id="id_109" style="fill: rgb(255, 255, 255);"></polygon>
  <polygon class="fil1" points="3765,5966 4286,6870 4858,6870 4336,5966 " id="id_110" style="fill: rgb(255, 255, 255);"></polygon>
  <polygon class="fil1" points="1503,5725 5609,5725 5609,5400 1503,5400 " id="id_111" style="fill: rgb(255, 255, 255);"></polygon>
 </g>
</svg>